leg39_CMCTool_states
nRows=4
nColumns=41

# SIMM Motion File Header:
name leg39_CMCTool_states
datacolumns 41
datarows 4
otherdata 1
range 0.09800000000000000400 0.09875000000000000400
endheader
time	pelvis_tilt	hip_angle_r	knee_angle_r	tib_tx_r	tib_ty_r	pat_angle_r	pat_tx_r	pat_ty_r	ankle_angle_r	subtalar_angle_r	mtp_angle_r	pelvis_tilt_u	hip_angle_r_u	knee_angle_r_u	tib_tx_r_u	tib_ty_r_u	pat_angle_r_u	pat_tx_r_u	pat_ty_r_u	ankle_angle_r_u	subtalar_angle_r_u	mtp_angle_r_u	bifemlh_r.activation	bifemlh_r.fiber_length	bifemsh_r.activation	bifemsh_r.fiber_length	glut_max2_r.activation	glut_max2_r.fiber_length	psoas_r.activation	psoas_r.fiber_length	rect_fem_r.activation	rect_fem_r.fiber_length	vas_int_r.activation	vas_int_r.fiber_length	med_gas_r.activation	med_gas_r.fiber_length	soleus_r.activation	soleus_r.fiber_length	tib_ant_r.activation	tib_ant_r.fiber_length
      0.09800000000000000400	      0.00000000000001189118	     14.02265953358875400000	    -68.20091781194837200000	      0.00513892717372471580	     -0.47855046993344347000	     17.50800902975023400000	      0.04031117116496784500	     -0.02264453570711941900	      1.43092122154124390000	     -0.00000000000000046618	      0.00000000000001233319	      0.00000000000021624890	    119.97654753087453000000	     15.97100407642072600000	     -0.00019965946753934245	      0.00517955656676657650	     -0.12325879479793174000	      0.00502600111267305710	     -0.00046704516251137531	     55.54483792573380900000	     -0.00000000000000872721	      0.00000000000018611401	      0.07044508192733821300	      0.07877818745438278100	      0.25476331205487468000	      0.16041503440588417000	      0.01999999999999993400	      0.10498314744607617000	      0.38505868590632641000	      0.09590565144021241700	      0.03080989268481163600	      0.16361099712826346000	      0.01999999999999993400	      0.13458327154790603000	      0.03712617624736364000	      0.07910569148614686500	      0.01999999999999993400	      0.09095593817070021800	      0.34741761207228539000	      0.08547357557864383700
      0.09825000000000000400	      0.00000000000001194526	     14.05263963441695700000	    -68.19684974454332900000	      0.00513887626226358290	     -0.47854915063435444000	     17.50797762425775200000	      0.04031245134643042500	     -0.02264465468520316500	      1.44478928305227190000	     -0.00000000000000046813	      0.00000000000001237852	      0.00000000000021435856	    119.86421438439292000000	     16.57347017713338000000	     -0.00020763955840964111	      0.00537481270983068000	     -0.12798605881120173000	      0.00521542709895224040	     -0.00048477971454128331	     55.39882157994134800000	     -0.00000000000000659908	      0.00000000000018016132	      0.07043567676281202400	      0.07881380875339524800	      0.25414693303880009000	      0.16041747487049515000	      0.01999999999999993400	      0.10501274708871350000	      0.38457780339714698000	      0.09588389229549163000	      0.03074254154716525600	      0.16358561059363250000	      0.01999999999999993400	      0.13458186054317905000	      0.03701947144580598800	      0.07912412068947913300	      0.01999999999999993400	      0.09096785231787586600	      0.34695813235624662000	      0.08546506512802273800
      0.09850000000000000400	      0.00000000000001199935	     14.08259161810666200000	    -68.19263110888016400000	      0.00513882335019736490	     -0.47854778253867453000	     17.50794503624728200000	      0.04031377886689430800	     -0.02264477809711271800	      1.45862022570999270000	     -0.00000000000000046938	      0.00000000000001242320	      0.00000000000021750466	    119.75160928622016000000	     17.17555126467665600000	     -0.00021566461679627526	      0.00556992957183496780	     -0.13271899935952536000	      0.00540471336734045430	     -0.00050251587620868962	     55.24792630707511900000	     -0.00000000000000591890	      0.00000000000018155208	      0.07042633019725153000	      0.07884948401668212500	      0.25353439437795977000	      0.16041999675367383000	      0.01999999999999993400	      0.10504231395962084000	      0.38409991703094620000	      0.09586214932948519700	      0.03067561004141296600	      0.16356013326613802000	      0.01999999999999993400	      0.13458032897486549000	      0.03691343146951411200	      0.07914255532300557000	      0.01999999999999993400	      0.09097974413839796100	      0.34650151543288332000	      0.08545656996412830100
      0.09875000000000000400	      0.00000000000001205409	     14.11251541582416600000	    -68.18826200042929000000	      0.00513876842605360830	     -0.47854636568103465000	     17.50791126425464100000	      0.04031515369159450300	     -0.02264490594332910200	      1.47241285977930850000	     -0.00000000000000047133	      0.00000000000001246912	      0.00000000000021732509	    119.63872549745416000000	     17.77725336737946900000	     -0.00022373648385005024	      0.00576490859190576400	     -0.13745797507475116000	      0.00559386116007678630	     -0.00052025426926919369	     55.09239439909193000000	     -0.00000000000001389230	      0.00000000000019538018	      0.07041704186555532200	      0.07888521296287517900	      0.25292567214498446000	      0.16042259996307720000	      0.01999999999999993400	      0.10507184800876780000	      0.38362500814022715000	      0.09584042234100542700	      0.03060909555303432300	      0.16353456533718785000	      0.01999999999999993400	      0.13457867800475695000	      0.03680805217628797100	      0.07916099446850140300	      0.01999999999999993400	      0.09099161264318389500	      0.34604774346553890000	      0.08544809009733871100
